# xmcd
#
# Track frame offsets:
#	150
#	39198
#	73248
#	114798
#	150948
#	198423
#	241098
#	273273
#	295173
#	318798
#
# Disc length: 4541 seconds
#
# Revision: 0
# Processed by: cddbd v1.5.2PL0 Copyright (c) Steve Scherf et al.
# Submitted via: EasyCDDAExtractor 11.0.2.1
#
DISCID=7911bb0a
DTITLE=Himlische Cantorey Knabenchor Hannover - Membra Jesu Nostri
DYEAR=2008
DGENRE=Chorus
TTITLE0=Membra Jesu Nostri BuxWV 75 Ad Pedes
TTITLE1=Membra Jesu Nostri BuxWV 75 Ad Genua
TTITLE2=Membra Jesu Nostri BuxWV 75 Ad Manus
TTITLE3=Membra Jesu Nostri BuxWV 75 Ad Latus
TTITLE4=Membra Jesu Nostri BuxWV 75 Ad Pectus
TTITLE5=Membra Jesu Nostri BuxWV 75 Ad Chor
TTITLE6=Membra Jesu Nostri BuxWV 75 Ad Faciem
TTITLE7=Fried- und Freudenreiche Hinfahrt BuxWV 76 Contrapunctus I
TTITLE8=Fried- und Freudenreiche Hinfahrt BuxWV 76 Contrapunctus II
TTITLE9=Befiehl dem Engel, dass er komm BuxWV 10
EXTD=
EXTT0=
EXTT1=
EXTT2=
EXTT3=
EXTT4=
EXTT5=
EXTT6=
EXTT7=
EXTT8=
EXTT9=
PLAYORDER=
